<?xml version="1.0" encoding="UTF-8" standalone="no"?>
<!-- Created with Inkscape (http://www.inkscape.org/) -->

<svg
   xmlns:dc="http://purl.org/dc/elements/1.1/"
   xmlns:cc="http://creativecommons.org/ns#"
   xmlns:rdf="http://www.w3.org/1999/02/22-rdf-syntax-ns#"
   xmlns:svg="http://www.w3.org/2000/svg"
   xmlns="http://www.w3.org/2000/svg"
   xmlns:sodipodi="http://sodipodi.sourceforge.net/DTD/sodipodi-0.dtd"
   xmlns:inkscape="http://www.inkscape.org/namespaces/inkscape"
   width="102"
   height="22"
   id="svg3070"
   version="1.1"
   inkscape:version="0.48.4 r9939"
   sodipodi:docname="AC_Enc.svg">
  <defs
     id="defs3072" />
  <sodipodi:namedview
     id="base"
     pagecolor="#ffffff"
     bordercolor="#666666"
     borderopacity="1.0"
     inkscape:pageopacity="0.0"
     inkscape:pageshadow="2"
     inkscape:zoom="7.919596"
     inkscape:cx="76.949755"
     inkscape:cy="20.679667"
     inkscape:document-units="px"
     inkscape:current-layer="layer1"
     showgrid="false"
     inkscape:window-width="1280"
     inkscape:window-height="972"
     inkscape:window-x="-8"
     inkscape:window-y="-8"
     inkscape:window-maximized="1" />
  <metadata
     id="metadata3075">
    <rdf:RDF>
      <cc:Work
         rdf:about="">
        <dc:format>image/svg+xml</dc:format>
        <dc:type
           rdf:resource="http://purl.org/dc/dcmitype/StillImage" />
        <dc:title />
      </cc:Work>
    </rdf:RDF>
  </metadata>
  <g
     inkscape:label="Layer 1"
     inkscape:groupmode="layer"
     id="layer1"
     transform="translate(0,-1030.3622)">
    <g
       id="g5000"
       style="fill:#ffffff;fill-opacity:1;stroke:none"
       transform="translate(-310.28125,45.080983)">
      <path
         style="font-size:medium;font-style:normal;font-variant:normal;font-weight:normal;font-stretch:normal;text-indent:0;text-align:start;text-decoration:none;line-height:normal;letter-spacing:normal;word-spacing:normal;text-transform:none;direction:ltr;block-progression:tb;writing-mode:lr-tb;text-anchor:start;baseline-shift:baseline;color:#000000;fill:#ffffff;fill-opacity:1;stroke:none;stroke-width:1px;marker:none;visibility:visible;display:inline;overflow:visible;enable-background:accumulate;font-family:Sans;-inkscape-font-specification:Sans"
         d="m 323.125,985.4375 c -0.44338,0 -0.77483,0.1996 -1.25,0.46875 -0.47517,0.26915 -1.02512,0.65034 -1.65625,1.09375 -1.26227,0.88682 -2.78297,2.0473 -4.25,3.21875 -2.93406,2.3429 -5.6875,4.6875 -5.6875,4.6875 l 0.65625,0.75 c 0,0 2.73954,-2.3272 5.65625,-4.65625 1.45836,-1.16453 2.95607,-2.32234 4.1875,-3.1875 0.61572,-0.43258 1.16678,-0.7894 1.59375,-1.03125 0.42697,-0.24185 0.79383,-0.34375 0.75,-0.34375 0.47752,0 0.87617,0.22488 1.28125,0.71875 0.40508,0.49387 0.77975,1.24474 1.09375,2.1875 0.628,1.88553 1.01329,4.47103 1.3125,7.0625 0.29921,2.59147 0.50582,5.21365 0.75,7.18755 0.12209,0.9869 0.26254,1.8167 0.4375,2.4374 0.0875,0.3104 0.16972,0.5568 0.3125,0.7813 0.14278,0.2245 0.40242,0.4687 0.75,0.4687 0.34184,0 0.53403,-0.2237 0.65625,-0.4062 0.12222,-0.1825 0.22545,-0.408 0.3125,-0.6562 0.1741,-0.4965 0.31325,-1.151 0.46875,-1.9376 0.31099,-1.573 0.60495,-3.6202 0.90625,-5.68745 0.3013,-2.06722 0.62482,-4.12963 0.9375,-5.65625 0.15634,-0.76331 0.31897,-1.4066 0.46875,-1.8125 0.0468,-0.12672 0.086,-0.17479 0.125,-0.25 0.0172,0.0179 -0.02,0.006 0,0.0312 0.13577,0.17285 0.31934,0.44961 0.5,0.8125 0.36133,0.72578 0.74949,1.73873 1.15625,2.75 0.40676,1.01127 0.83742,2.01955 1.25,2.8125 0.20629,0.39647 0.39707,0.7297 0.625,1 0.22793,0.2703 0.5201,0.53125 0.9375,0.53125 0.32618,0 0.53235,-0.15017 0.75,-0.3125 0.21765,-0.16233 0.43073,-0.35355 0.65625,-0.59375 0.45104,-0.4804 0.92485,-1.10978 1.40625,-1.71875 0.4814,-0.60897 0.98229,-1.19089 1.375,-1.625 0.19635,-0.21705 0.36986,-0.39611 0.5,-0.5 0.13014,-0.10389 0.2083,-0.0937 0.0937,-0.0937 0.52862,0 1.63062,0.33041 2.8125,0.75 1.18188,0.41959 2.48123,0.89718 3.6875,1.0625 1.54131,0.21124 4.33517,0.003 4.375,0 2.8e-4,-2e-5 0.0312,0 0.0312,0 l 11.6875,0 8.71875,0 6.1875,0 22.6875,0 5.5625,0 0,-1 -5.5625,0 -22.6875,0 -6.1875,0 -8.71875,0 -11.71875,0 -0.0312,0 -0.0312,0 c 0,0 -2.90422,0.17587 -4.1875,0 -1.0438,-0.14305 -2.28614,-0.58015 -3.46875,-1 -1.18261,-0.41985 -2.26874,-0.8125 -3.15625,-0.8125 -0.3383,0 -0.51571,0.15042 -0.71875,0.3125 -0.20304,0.16208 -0.40888,0.35485 -0.625,0.59375 -0.43224,0.4778 -0.92648,1.08059 -1.40625,1.6875 -0.47977,0.60691 -0.93861,1.22474 -1.34375,1.65625 -0.20257,0.21575 -0.39228,0.39635 -0.53125,0.5 -0.13897,0.10365 -0.22744,0.0937 -0.15625,0.0937 0.0766,0 -0.0115,0.0154 -0.15625,-0.15625 -0.14474,-0.17164 -0.34335,-0.48261 -0.53125,-0.84375 -0.37581,-0.72228 -0.78164,-1.70972 -1.1875,-2.71875 -0.40586,-1.00903 -0.79448,-2.02306 -1.1875,-2.8125 -0.19651,-0.39472 -0.41363,-0.73091 -0.625,-1 -0.21137,-0.26909 -0.44722,-0.53125 -0.875,-0.53125 -0.33129,0 -0.52637,0.19197 -0.65625,0.375 -0.12988,0.18303 -0.22049,0.4069 -0.3125,0.65625 -0.18401,0.49869 -0.36997,1.15007 -0.53125,1.9375 -0.32256,1.57486 -0.60482,3.65067 -0.90625,5.71875 -0.30143,2.06805 -0.6041,4.12785 -0.90625,5.65625 -0.15108,0.7641 -0.32562,1.4044 -0.46875,1.8125 -0.0112,0.032 -0.0202,0.034 -0.0312,0.063 -0.0303,-0.081 -0.0635,-0.1115 -0.0937,-0.2188 -0.1462,-0.5187 -0.25546,-1.3151 -0.375,-2.2812 -0.23908,-1.9326 -0.44783,-4.53923 -0.75,-7.15635 -0.30217,-2.61712 -0.70191,-5.26033 -1.375,-7.28125 -0.33655,-1.01046 -0.7518,-1.85449 -1.28125,-2.5 -0.52945,-0.64551 -1.21757,-1.09375 -2.03125,-1.09375 z"
         id="path4228"
         inkscape:connector-curvature="0"
         sodipodi:nodetypes="csssccssscsssscsssccsscccsssssssssscsscccccccccccccccsssssssssssssssscsscccccssscc" />
      <path
         id="path5006"
         d="m 410.24719,995.28855 -3.46,2 0,-4 z"
         style="fill:#ffffff;fill-opacity:1;fill-rule:evenodd;stroke:none"
         inkscape:connector-curvature="0"
         sodipodi:nodetypes="cccc" />
    </g>
  </g>
</svg>
